# xmcd CD database file
#
# Track frame offsets:
#	150
#	14874
#	33351
#	48635
#	63127
#	82322
#	96397
#	113878
#	128486
#	148603
#	169289
#
# Disc length: 2544 seconds
#
# Revision: 9
# Processed by: cddbd v1.5.2PL0 Copyright (c) Steve Scherf et al.
# Submitted via: CDex 1.51
#
DISCID=9e09ee0b
DTITLE=Julie Roberts - Julie Roberts
DYEAR=2004
DGENRE=Country
TTITLE0=You Ain't Down Home
TTITLE1=Break Down Here
TTITLE2=Pot Of Gold
TTITLE3=Unlove Me
TTITLE4=Just 'Cause We Can
TTITLE5=Wake Up Older
TTITLE6=If You Had Called Yesterday
TTITLE7=No Way Out
TTITLE8=I Can't Get Over You
TTITLE9=Rain On A Tin Roof
TTITLE10=The Chance
EXTD=YEAR: 2004
EXTT0=
EXTT1=
EXTT2=
EXTT3=
EXTT4=
EXTT5=
EXTT6=
EXTT7=
EXTT8=
EXTT9=
EXTT10=
PLAYORDER=
